<svg viewBox="0 0 106.389 163.539">
  <path fill="#c5d900" d="M105.436 155.628h-3.201c-.053 0-.08.026-.08.08v2.116c0 .053.027.08.08.08h1.852c.106 0 .185.052.185.158v1.297c0 .105-.08.158-.185.158h-1.852c-.053 0-.08.053-.08.08v2.143c0 .026.027.053.08.053h3.201a.18.18 0 0 1 .186.185v1.296c0 .106-.08.16-.186.16h-5.238c-.106 0-.186-.054-.186-.16v-9.101c0-.106.08-.159.186-.159h5.238c.106 0 .186.053.186.159v1.296c0 .106-.08.159-.186.159zM93.742 163.3l-1.19-3.704c0-.027-.027-.08-.08-.08h-.503c-.053 0-.08.053-.08.08v3.677c0 .106-.079.16-.184.16h-1.8c-.105 0-.185-.054-.185-.16v-9.128c0-.08.08-.159.185-.159h3.096c1.72 0 2.884 1.191 2.884 2.858 0 1.058-.503 1.879-1.297 2.355-.052 0-.079.053-.052.08l1.402 3.968c.026.106-.027.185-.159.185h-1.825c-.106 0-.186-.053-.212-.132zm-1.852-7.594v2.276c0 .053.026.08.08.08h.687c.635 0 1.058-.45 1.058-1.192 0-.793-.423-1.243-1.058-1.243h-.688c-.053 0-.08.026-.08.08zm-12.62 5.054v-6.588c0-.106.079-.159.184-.159h1.8c.105 0 .185.053.185.159v6.773c0 .582.344.979.9.979.502 0 .872-.397.872-.979v-6.773c0-.106.053-.159.16-.159h1.798c.106 0 .186.053.186.159v6.588c0 1.667-1.218 2.778-3.017 2.778-1.852 0-3.069-1.111-3.069-2.778zm-4.049-6.588v1.296c0 .106-.08.159-.185.159H73.13c-.053 0-.08.026-.08.08v7.566c0 .106-.079.16-.185.16h-1.799c-.106 0-.185-.054-.185-.16v-7.567c0-.053-.027-.08-.08-.08h-1.825c-.106 0-.185-.052-.185-.158v-1.296c0-.106.079-.159.185-.159h6.059c.106 0 .185.053.185.159zm-14.71 9.101v-9.101c0-.106.079-.159.184-.159h1.8c.105 0 .185.053.185.159v7.567c0 .026.026.053.08.053h3.2a.18.18 0 0 1 .186.185v1.296c0 .106-.08.16-.185.16h-5.266c-.105 0-.185-.054-.185-.16zm-10.452-2.513v-6.588c0-.106.08-.159.185-.159h1.8c.105 0 .185.053.185.159v6.773c0 .582.344.979.873.979s.873-.397.873-.979v-6.773c0-.106.08-.159.185-.159h1.8c.105 0 .185.053.185.159v6.588c0 1.667-1.218 2.778-3.043 2.778-1.826 0-3.043-1.111-3.043-2.778zm-10.266.132v-4.366c0-1.613 1.217-2.619 3.043-2.619s3.07 1.006 3.07 2.62v.158c0 .08-.08.159-.186.159l-1.8.053c-.131 0-.184-.027-.184-.132v-.37c0-.504-.344-.874-.9-.874-.53 0-.9.37-.9.873v4.657c0 .503.37.873.9.873.556 0 .9-.37.9-.873v-.37c0-.08.079-.16.185-.16l1.799.08c.106 0 .185.053.185.132v.16c0 1.613-1.243 2.645-3.069 2.645-1.826 0-3.043-1.032-3.043-2.646zm-6.297-6.88h1.852c.088 0 .16.072.16.16v9.101c0 .088-.072.16-.16.16h-1.852a.158.158 0 0 1-.158-.16v-9.101c0-.088.07-.16.158-.16zm-6.403 9.288-1.19-3.704c0-.027-.027-.08-.08-.08h-.502c-.053 0-.08.053-.08.08v3.677c0 .106-.08.16-.185.16h-1.8c-.105 0-.184-.054-.184-.16v-9.128c0-.08.079-.159.185-.159h3.095c1.72 0 2.884 1.191 2.884 2.858 0 1.058-.502 1.879-1.296 2.355-.053 0-.08.053-.053.08l1.402 3.968c.027.106-.026.185-.158.185h-1.826c-.106 0-.185-.053-.212-.132zm-1.852-7.594v2.276c0 .053.027.08.08.08h.688c.608 0 1.058-.45 1.058-1.192 0-.793-.45-1.243-1.058-1.243h-.688c-.053 0-.08.026-.08.08zM12.753 161v-4.55c0-1.562 1.19-2.54 3.043-2.54 1.825 0 3.069.978 3.069 2.54v.528c0 .08-.08.159-.185.159h-1.8c-.105 0-.185-.08-.185-.159v-.555c0-.53-.344-.9-.9-.9-.529 0-.899.37-.899.9v4.577c0 .556.37.926.9.926.555 0 .9-.37.9-.926v-1.058c0-.053-.027-.08-.08-.08h-.662c-.105 0-.185-.053-.185-.159v-1.19c0-.106.08-.159.185-.159h2.726c.105 0 .185.053.185.159v2.487c0 1.535-1.244 2.54-3.07 2.54-1.851 0-3.042-1.005-3.042-2.54zm-6.165 2.275-.238-1.27c0-.053-.053-.079-.106-.079H4.34c-.053 0-.08.026-.08.053l-.29 1.296c0 .133-.08.16-.185.16h-1.8c-.132 0-.185-.054-.158-.186l2.249-9.102c.026-.08.105-.132.211-.132H6.35c.106 0 .185.053.185.132l2.25 9.102c.026.132-.027.185-.16.185H6.8c-.106 0-.185-.026-.212-.159zm-1.931-2.804H5.98c.053 0 .053-.027.053-.08l-.635-3.466c-.027-.053-.08-.053-.106 0l-.715 3.466c0 .053.027.08.08.08z"/>
  <path fill="#008600" d="m7.62 143.007.265 4.18-1.985 1.085q-.688.265-1.455.265-2.064 0-3.228-1.376Q.08 145.76.08 143.14v-18.045q0-2.434 1.509-4.022 1.481-1.56 3.677-1.56 2.17 0 3.651 1.56 1.482 1.588 1.482 4.022v6.138H5.874v-6.244q0-.661-.609-.661c-.37 0-.688.29-.688.661v18.098c0 .37.106.688.477.767.846.185 4.021-1.905 2.672-1.323zm97.975 5.504h-3.625l-2.513-13.335V148.51h-4.154v-28.126h3.942l2.196 10.928v-10.928h4.154zm-13.758 0h-4.472l-.344-4.34h-2.434l-.344 4.34h-4.365L83 120.385h5.768zm-5.16-8.917-.635-7.805-.211-3.572-.212 3.572-.635 7.805zm-10.556 8.917h-4.498v-28.126h4.498zm-8.123-5.345q0 2.223-1.482 3.784-1.455 1.56-3.519 1.56H57.68v-28.125h5.318q2.064 0 3.52 1.561 1.48 1.561 1.48 3.784zm-4.524-.265v-16.933q0-1.005-.794-1.005h-.503v18.944h.503q.794 0 .794-1.006zm-9.79 5.61H49.16v-10.425q0-1.005-.926-1.005h-.318v11.43h-4.55v-28.126h5.794q2.01 0 3.254 1.35 1.27 1.35 1.27 3.73v6.35q0 .874-.503 1.667-.502.82-1.19 1.217.767.265 1.217 1.244.476.952.476 1.984zm-4.524-17.278v-5.238q0-1.006-.847-1.006h-.397v7.223h.397q.847 0 .847-.979zm-9.076 17.278h-4.471l-.344-4.34h-2.434l-.344 4.34h-4.366l3.149-28.126h5.768zm-5.185-8.917-.635-7.805-.212-3.572-.212 3.572-.635 7.805zm-9.764 3.784q0 2.434-1.481 3.995-1.508 1.587-3.678 1.587-2.196 0-3.651-1.587-1.482-1.561-1.482-3.995v-22.993h4.498v23.125q0 .661.661.661.635 0 .635-.661v-23.125h4.498zm-14.287 2.937c0 1.19-.953 2.17-2.117 2.222h-.053a2.19 2.19 0 0 1-2.328-2.196q-.026-1.773-.026-5.239l.052-8.652h.027c1.27.45 2.275 1.217 3.016 1.985a5.238 5.238 0 0 1 1.455 3.625v3.069z"/>
  <path fill="#7fb905" d="M10.742 52.493H0A52.935 52.935 0 0 1 15.108 16.06l7.593 7.594c-7.25 7.487-11.774 17.621-11.959 28.84zM83.714 23.68l7.594-7.593c9.18 9.445 14.896 22.278 15.081 36.433H95.647a42.353 42.353 0 0 0-11.933-28.84Z" />
  <path fill="#008600" d="M106.389 53.896c-.185 14.181-5.927 27.014-15.108 36.433l-7.593-7.594c7.25-7.488 11.774-17.621 11.959-28.84zM22.675 82.709l-7.594 7.593C5.874 80.857.16 68.024 0 53.87h10.742c.159 11.192 4.683 21.352 11.933 28.84z" />
  <path fill="#1e5631" d="m82.709 83.714 7.593 7.594c-9.445 9.207-22.278 14.896-36.433 15.081V95.647a42.353 42.353 0 0 0 28.84-11.933zM52.493 95.647l-.026 10.742c-14.155-.185-26.988-5.9-36.407-15.108l7.594-7.593c7.487 7.25 17.621 11.774 28.84 11.959z" />
  <path fill="#c5d900" d="m23.68 22.675-7.593-7.594A53.08 53.08 0 0 1 52.52 0v10.742a42.353 42.353 0 0 0-28.84 11.933ZM53.896 10.742V0a52.935 52.935 0 0 1 36.433 15.108L82.735 22.7c-7.488-7.25-17.621-11.774-28.84-11.959Z" />
  <path fill="#298c3e" d="M45.773 54.292a4.085 4.085 0 0 1 5.45 1.297q.027.053.053.08c1.244 1.93.635 4.524-1.35 5.714q-2.75 1.64-8.228 4.816l-13.679 7.91v-.026c-.502-2.434-.185-4.736.318-6.588.661-2.381 2.249-4.392 4.365-5.635l4.869-2.831zM57.573 48.34c0 2.169-1.72 3.968-3.863 4.047q-.052 0-.105.027c-2.302.08-4.234-1.746-4.26-4.048q-.027-3.202 0-9.525l.053-15.822.053.026c2.328.794 4.18 2.223 5.503 3.599a9.506 9.506 0 0 1 2.672 6.614v5.61zM56.806 61.383c-1.852-1.11-2.54-3.492-1.508-5.397q.026-.027.026-.08a4.092 4.092 0 0 1 5.662-1.614q2.752 1.614 8.203 4.842l13.573 8.123-.053.027c-1.879 1.614-4.022 2.46-5.9 2.91-2.382.582-4.922.185-7.038-1.058l-4.842-2.884z" />
</svg>