<svg xmlns="http://www.w3.org/2000/svg" viewBox="0 0 403 402" width="403" height="402">
    <path d="m317 89.5l28.7-28.7c34.7 35.7 56.3 84.2 57 137.7h-40.6c-0.7-42.3-17.7-80.7-45.1-109z"/>
    <path d="m90.1 85.7l-28.7-28.7c35.6-34.8 84.1-56.3 137.7-57v40.6c-42.4 0.7-80.7 17.7-109 45.1z"/>
    <path d="m402.7 203.7c-0.7 53.6-22.4 102.1-57.1 137.7l-28.7-28.7c27.4-28.3 44.5-66.6 45.2-109z"/>
    <path d="m86.3 312.6l-28.7 28.7c-34.8-35.7-56.4-84.2-57-137.7h40.6c0.6 42.3 17.7 80.7 45.1 109z"/>
    <path d="m313.2 316.4l28.7 28.7c-35.7 34.7-84.2 56.3-137.8 57l0.1-40.6c42.3-0.7 80.7-17.7 109-45.1z"/>
    <path d="m198.9 361.5v40.6c-53.5-0.7-102-22.3-137.7-57.1l28.8-28.7c28.2 27.4 66.6 44.5 108.9 45.2z"/>
    <path d="m204.3 40.6v-40.6c53.6 0.7 102.1 22.3 137.7 57.1l-28.7 28.7c-28.3-27.4-66.7-44.5-109-45.2z"/>
    <path d="m173.6 205.2c7.1-4.1 16.1-1.9 20.6 4.9q0.1 0.2 0.1 0.3c4.8 7.3 2.5 17.1-5 21.6q-10.4 6.2-31.1 18.2l-51.7 29.9v-0.2c-1.9-9.1-0.8-17.8 1.2-24.8 2.5-9 8.4-16.6 16.5-21.3l18.3-10.7z"/>
    <path d="m218.2 182.7c-0.1 8.2-6.5 14.9-14.7 15.3q-0.1 0-0.3 0c-8.7 0.4-16-6.5-16.1-15.2q-0.1-12.1-0.1-36l0.3-59.8 0.2 0.1c8.8 3 15.7 8.4 20.8 13.5 6.5 6.7 10.1 15.7 10.1 25.1v21.2z"/>
    <path d="m215.3 232c-7-4.2-9.6-13.2-5.7-20.4q0-0.1 0.1-0.3c4.1-7.7 13.8-10.5 21.3-6.1q10.5 6.1 31.1 18.3l51.2 30.7-0.1 0.1c-7.1 6.1-15.2 9.3-22.3 11-9.1 2.2-18.6 0.7-26.7-4.1l-18.2-10.8z"/>
    <path d="m41.2 198.4h-40.6c0.7-53.6 22.3-102.1 57.1-137.7l28.7 28.7c-27.4 28.3-44.5 66.6-45.2 109z"/>
</svg>