<svg xmlns="http://www.w3.org/2000/svg" viewBox="0 0 805 805" width="805" height="805">
    <g fill="#7fb905">
        <path d="m81.8 397.1l-81.2-0.1c1.4-107.1 44.7-204.1 114.2-275.3l57.4 57.4c-54.8 56.6-89 133.3-90.4 218z"/>
        <path d="m633.4 179.3l57.4-57.4c69.5 71.3 112.7 168.4 114 275.5h-81.2c-1.3-84.7-35.4-161.5-90.2-218.1z"/>
    </g>
    <g fill="#c3d82e">
        <path d="m179.6 171.7l-57.4-57.4c71.3-69.5 168.4-112.7 275.5-114l-0.1 81.2c-84.6 1.3-161.4 35.5-218 90.2z"/>
        <path d="m408.1 81.5v-81.2c107.1 1.4 204.1 44.7 275.4 114.2l-57.5 57.4c-56.5-54.8-133.2-89-217.9-90.4z"/>
    </g>
    <g fill="#008600">
        <path d="m804.8 407.8c-1.4 107.1-44.7 204.1-114.2 275.4l-57.4-57.4c54.8-56.6 89-133.3 90.4-218z"/>
        <path d="m172 625.6l-57.4 57.3c-69.5-71.3-112.7-168.3-114-275.4h81.2c1.3 84.7 35.4 161.4 90.2 218.1z"/>
    </g>
    <g fill="#1e5631">
        <path d="m625.8 633.1l57.4 57.5c-71.3 69.4-168.3 112.6-275.4 113.9v-81.2c84.7-1.3 161.4-35.4 218-90.2z"/>
        <path d="m397.4 723.3l-0.1 81.2c-107.1-1.4-204.1-44.7-275.3-114.2l57.4-57.4c56.6 54.9 133.3 89 218 90.4z"/>
    </g>
    <g fill="#008600">
        <path d="m346.6 410.7c14.2-8.2 32.3-3.9 41.2 9.9q0.2 0.2 0.4 0.5c9.4 14.7 4.9 34.3-10.1 43.2q-20.8 12.4-62.2 36.5l-103.4 59.8-0.1-0.4c-3.7-18.3-1.4-35.7 2.4-49.6 5-18.1 16.9-33.3 33.1-42.7l36.7-21.4z"/>
        <path d="m435.8 365.8c0 16.3-12.9 29.8-29.2 30.6q-0.3 0-0.7 0c-17.4 0.8-32.1-13-32.2-30.5q-0.2-24.2-0.1-72.1l0.5-119.4 0.3 0.1c17.7 6 31.6 16.8 41.7 27.1 13 13.4 20.2 31.4 20.2 50.1l-0.1 42.4z"/>
        <path d="m430 464.3c-14-8.4-19.1-26.3-11.4-40.8q0.1-0.2 0.3-0.5c8.2-15.4 27.6-21 42.7-12.2q20.9 12.2 62.1 36.6l102.5 61.3-0.3 0.2c-14.2 12.2-30.5 18.7-44.6 22.1-18.1 4.3-37.3 1.4-53.3-8.2l-36.5-21.6z"/>
    </g>
</svg>